<?xml version="1.0" encoding="UTF-8"?>
<svg id="Livello_1" data-name="Livello 1" xmlns="http://www.w3.org/2000/svg" viewBox="0 0 299.5 469.82">
  <defs>
    <style>
      .cls-1 {
        stroke-width: 0px;
      }
    </style>
  </defs>
  <path class="cls-1" d="m140.95,81.59c.93-5.3,2.06-10.22,4.68-14.53,3.05-5.02,6.94-9,12.77-11.27,4.8-1.86,9.57-2.07,14.41-1.82,5.22.27,9.68,2.92,13.24,6.59,5.23,5.39,9.34,11.45,10.93,19.11,1.95,9.38,2.65,18.7,1.09,28.2-.62,3.81-.6,7.71-1,11.57-.79,7.48-2.62,14.67-4.22,21.96-1.13,5.17-2.98,10.19-3.43,15.48-.08.98-2.32,2.03-.27,2.87.84.35,2.13-.49,3.18-.68,5.43-.94,10.89-1.92,16.19.77,3.48,1.77,5.07,4.99,4.48,8.89-.3,1.96-.45,3.9-1.17,5.79-1.01,2.66.32,4.82,1.89,6.84,5.58,7.16,11.21,14.27,16.7,21.49,2.81,3.69,5.63,7.46,4.75,12.6-.12.69-.21,1.28-.65,1.9-7.92,11.04-16.37,21.62-26.14,31.09-3.48,3.38-4.99,7.7-6.31,12.16-.91,3.07-2.07,6.07-2.79,9.18-.57,2.49-.76,5.07-1.34,7.59-1.27,5.49-2.31,11.03-3.94,16.45-.71,2.35-.87,4.88-1.39,7.33-.56,2.65,2.25,2.25,3.35,2.5,4.19.93,8.23,2.42,12.53,3.07,3.2.48,6.29,2.04,9.44,3.1,1.73.58,3.54,1.02,5.2,1.99,1.51.89,2.52,1.78,2.54,3.49.03,3.95-.17,7.84-.82,11.8-.67,4.06-1.79,8-2.55,12.02-.88,4.68-2.36,9.25-3.59,13.86-.6,2.23-1.26,4.45-1.87,6.68-.26.93-.12,2.01.89,2.1,2.01.16,3.69,1.31,5.72,1.46,6.13.47,14.83,7.77,13.79,15.07-1.06,7.44-5.04,12.84-12.19,15.54-10.27,3.87-20.76,3.55-31.37,1.61-4.17-.76-8.09-1.95-11.74-4.1-2.28-1.35-2.87-2.83-1.73-5.12.42-.85.46-1.64.48-2.49.07-3.11,1.03-6.04,1.83-9,.56-2.07.71-4.22,1.17-6.33,1.44-6.53,2.44-13.16,3.67-19.74.32-1.72.1-1.91-1.79-1.53-4.62.92-9.05,2.53-13.64,3.55-2.76.61-5.74.54-8.4,1.98-1.85,1-4.23.9-6.26,1.16-3.85.5-7.34,2.63-11.33,2.23-.75-.08-1.93-.46-2.26.62-.35,1.14.95,1.13,1.51,1.68,3.48,3.43,6.95,6.89,9.88,10.83,2.04,2.74,4.47,5.15,5.86,8.43,1.46,3.47,1.25,6.68-.99,9.41-3.2,3.91-6.64,7.66-10.31,11.13-2.87,2.72-5.04,6-7.85,8.74-1,.98-.66,2,.37,2.83,4.34,3.5,5.94,8.21,6.21,13.6.28,5.57-.39,10.8-4.17,15.26-2.12,2.5-5.01,3.51-8,3.65-2.71.12-5.5.48-8.16-1.48-1.42-1.04-3.86-.82-5.85-1.45-4.88-1.54-9.02-4.15-12.62-7.62-4.46-4.31-7.8-9.52-11.07-14.75-2.12-3.4-2.04-6.08.54-9.21,4.56-5.53,9.19-11,13.84-16.46,1-1.17,1.72-2.51,2.89-3.59,1.24-1.15.49-2.47-.43-3.67-5.46-7.11-10.61-14.41-14.93-22.31-8.53-15.58-11.04-32.2-9.5-49.7,1-11.43,4.55-22.08,8.82-32.61,1.83-4.5,4.44-8.45,6.91-12.53.48-.79.65-1.49-.08-2.52-1.38-1.92-3.01-3.58-4.66-5.23-4.62-4.65-7.97-10.23-11.81-15.47-3.64-4.98-6.95-10.1-9.53-15.68-3.11-6.72-6.66-13.29-7.34-20.87-.14-1.57,0-3.02.82-4.47,1.81-3.21,3.51-6.4,6.2-9.07,6.86-6.8,13.6-13.73,20.1-20.9,2.44-2.7.86-4.71.05-6.91-1.29-3.5-.97-7.02-.22-10.44.3-1.38.51-2.99,1.5-4.31.66-.88.45-2.04-.61-2.99-7.1-6.34-12.87-13.78-17.77-21.91-1.82-3.01-2.56-6.46-3.74-9.71-1.36-3.72-1.74-7.78-1.79-11.64-.08-6.45.38-12.88,2.44-19.22,3.71-11.46,11.37-19,22.04-23.67,3.43-1.5,7.32-1.13,11.15-.67,12.68,1.51,19.98,10.19,26.84,19.57.14.2.31.38.72.87Zm7.61,140.96c-2.63-.07-5,.63-7.48,1.86-3.93,1.95-6.77,4.39-8.13,8.57-1.88,5.76-.89,10.9,3,15.54,2.58,3.07,6.18,4.91,9.06,7.63,1.43,1.36,2.63,2.6,1.94,4.69-.93,2.82-2.62,4-4.96,3.9-1.08-.04-1.72-.78-2.51-1.19-4.81-2.49-8.53-6.07-11.62-10.66-2.71-4.04-3.29-8.63-4.93-12.92-.69-1.81-.64-3.81-.32-5.66.63-3.6,2.4-7.38-2.64-9.35-.21-.08-.31-.41-.48-.6-4.52-5.26-9.79-9.74-14.93-14.36-2.09-1.88-3.39-4.64-2.46-6.53,1.12-2.26,2.48-4.41,3.81-6.56,2.23-3.62,5.39-6.47,8-9.75,3.86-4.85,7.85-9.55,12.02-14.13,1.54-1.69,2.61-3.96,3.42-6.14,1.13-3.01-.17-8.09-2.41-9.37-3.93-2.24-8.06-3.84-12.82-3.52-2.45.17-4.6,2.28-4.9,4.98-.52,4.73,2.33,7.72,5.32,10.51,1.35,1.26,1.54,1.71.27,3.17-1.68,1.93-3.96,3.25-5.42,5.28-2.74,3.82-6.44,6.69-9.46,10.24-4.23,4.97-8.89,9.49-12.73,14.9-3.77,5.31-2.56,9.67-.16,14.52.94,1.9,2.18,3.7,3.07,5.56,2.18,4.59,4.98,8.81,7.67,13.04,2.42,3.79,5.36,7.37,8.07,11,3.01,4.04,5.99,8.05,9.38,11.79,1.71,1.89,3.83,4.18,2.19,6.82-2.47,4-4.62,8.16-6.89,12.27-4.37,7.91-7.39,16.33-9.43,25.06-1.49,6.38-1.83,12.93-1.93,19.55-.1,6.28.14,12.28,2.93,17.99.23.46.37.98.45,1.49,1.11,7.27,5.14,13.21,8.98,19.16,4.5,6.98,9.86,13.36,14.95,19.92,3.29,4.24,3.13,3.87.73,8.48-2.5,4.79-5.87,9.13-10.11,12.59-2.64,2.16-3.77,5.68-7.14,7.25-1.73.81-1.9,2.69-.85,4.68,2.78,5.29,7.32,8.81,11.84,12.41,3.04,2.42,6.83,3.18,10.16,4.89,2.36,1.21,4.27,1.41,6.24-.42,1.66-1.55,2.64-5.14,1.62-7.09-2.58-4.95-6.45-8.48-11.97-9.88-1.43-.36-1.99-.92-2.19-2.55-.49-4.08,2.56-6.49,4.95-7.85,3.16-1.8,5.56-4.28,8.08-6.57,4.15-3.77,7.41-8.46,11.39-12.47,2.08-2.09,1.9-3.51-.33-5.55-2.58-2.36-4.99-4.91-7.47-7.34-3.55-3.49-7.05-7.12-10.27-10.97-2.58-3.08-5.09-6.13-4.63-10.65.23-2.27,1.28-3.22,3.3-3.53,1.2-.18,2.64.04,3.55-.57,2.48-1.66,5.47-1.65,8.07-2.04,3.54-.53,7.11-1.17,10.69-1.59,2.04-.24,4.08-.35,6.13-.68,3.75-.61,7.39-1.94,11.21-2.01,4.95-.09,9.39-2.14,14.02-3.45,2.51-.71,4.87-1.95,7.34-2.82,2.38-.84,4.83-.46,6.24,1.58,1.2,1.73,1.76,3.87,1.63,6.25-.27,5.22-1.77,10.21-2.58,15.33-.32,2.03-.5,4.09-.93,6.11-.96,4.53-2.63,8.91-2.86,13.61-.05.98-.26,1.94-.68,2.94-.51,1.22-1.2,3.11.73,4.03,3.9,1.84,8.31,1.3,12.41,2.49,1.58.46,3.12,1.42,4.73,1.45,2.78.05,5.55.36,8.31-.99,3.22-1.57,5.95-3.55,8.01-6.44,1.2-1.68.72-4.58-1.11-5.42-2.51-1.16-5.16-2.57-7.82-2.74-3.32-.2-6.37-1.36-9.6-1.7-.81-.09-1.25-.38-1.22-1.29.19-6.31,1.86-12.39,2.94-18.56.68-3.88,2.11-7.65,2.63-11.54.26-1.94.94-3.79,1.38-5.6.52-2.13.53-4.4,1.39-6.45.79-1.88.79-3.84.3-5.78-.48-1.91-1.96-.08-2.97-.7-.92-.57-1.66-1.55-3.14-1.41-3.21.3-6.09-1.47-9.22-2.01-2.04-.35-4.38,0-6.18-1.12-2.23-1.39-4.76-1.68-7.16-2.24-4.78-1.12-6.41-3.31-5.08-7.98,1.37-4.81,2.29-9.72,3.39-14.59.47-2.07.36-4.3,1.25-6.23,1.62-3.53,1.91-7.36,2.6-11.07.43-2.32,1.01-4.66,1.46-6.97.74-3.74,1.91-7.48,2.65-11.2.79-3.97,2.71-7.28,5.01-10.1,3.01-3.69,5.91-7.54,9.35-10.89,2.93-2.85,5.13-6.34,7.86-9.36,2.47-2.73,5.06-5.29,6.86-8.59,2.71-4.94,2.63-6.06-.6-10.74-4.13-5.99-8.85-11.51-13.57-17.01-1.78-2.07-3.26-4.33-4.98-6.4-2.85-3.43-3.57-6.47-.82-9.82.83-1.02,1.61-2.04,2.04-3.24.69-1.91-.38-3.5-2.39-3.56-5.28-.16-9.9,1.37-13.11,5.78-1.89,2.59-3.87,5.5-2.77,8.82,1,3.02,2.18,6.12,4.48,8.57,1.93,2.06,4.02,4.2,5.48,6.42,2.8,4.26,5.88,8.33,8.57,12.67,2.27,3.66,1.2,9.8-2.21,12.24-2.92,2.08-5.62,4.45-8.52,6.57-5.29,3.87-9.48,9.08-14.81,12.95-.42.3-.98.72-.78,1.25,1.11,2.86-.32,5.6-.29,8.38.05,4.75-2.02,8.38-5.07,11.71-.93,1.02-2.25,1.53-3.2.92-1.26-.79-3.16-1.12-3.4-3.11-.41-3.31.41-6.43,1.49-9.48,1-2.82,1.66-6.18,1.26-8.62-.57-3.48-.39-7.28-2.61-10.72-2.35-3.64-4.7-6.73-9.1-7.34-2.61-.36-5.31-.07-7.96-.07Zm29.27-156.35c-1.08-.2-2.16-.38-3.23-.6-.3-.06-.72-.17-.84-.39-.77-1.4-.75-1.42-2.02-1.42-2.26,0-4.68.54-6.74-.1-4.76-1.49-5.93,3.03-8.4,4.92-1.2.92-2.34,3.54-2.76,5.78-.97,5.17-3.01,10.09-2.89,15.52.09,3.78.58,7.53.53,11.31-.06,4.18-.53,4.37-4.68,4.86-2.79.34-4.98-.92-5.63-2.87-.45-1.33-1.94-1.38-1.84-2.35.23-2.31-1.76-3.53-2.59-5.23-1.15-2.37-3.48-4.29-4.68-6.75-1.37-2.81-4.9-4.22-4.91-7.85,0-.37-.57-.22-.85-.33-.8-.33-2.66.86-2.12-1.64.17-.8-2.06.94-2.57-.74-.06-.19-.36-.3-.56-.45,2.06-2.56-1.49-.51-1.34-1.58.01-.08-.75-.26-1.26-.43.46-.43.81-.76,1.25-1.18-1.34-.59-3.62.79-3.81-1.12-.14-1.35-.63-1.25-1.38-1.38-1.87-.31-1.87-.3-3.37-1.78-.37-.36-5.76-.34-6.17,0-.31.26-.12.47.04.63.54.53.56.81-.31.87-1.12.07-2.24.29-3.36.29-1.36,0-1.82.46-1.22,1.75-1.9-.29-2.57,1.76-3.83,2.14-1.5.45-2.03,1.48-2.54,2.44-.52.99.15,2.7-2.01,2.41-.39-.05-.12.77-.29,1.14-.43.94-.22,1.98-.74,2.96-2.23,4.21-2.69,8.99-3.09,13.52-.43,4.79,1.73,9.6,1.73,14.53,0,.31.16.79.39.9,2.31,1.1.97,4.41,3.35,5.44-.38,3.23,2.39,4.98,3.83,7.21.84,1.3,1.8,2.63,2.54,4.05.91,1.74,2.34,3.46,3.72,4.29,1.51.9,2.33,2.33,3.36,3.35,2.05,2.05,3.62,4.31,6.93,3.96.42-.04.86.03,1.38.06-.94.8-2.19-.17-3.14.86,2.3.69,4.57.48,6.79.6.96.05,2.51-.02,2.66.6.52,2.18,2.46,1.72,3.49,1.69,2.32-.06,3.1,2.99,5.49,2.32.04-.01.19.12.18.17-.47,2.02,1.38,1.34,2.19,1.85.28.18.85.12.95.33,1.31,2.64,4.27,3.72,5.8,6.08,1.02,1.57,2.69,2.99,2.76,4.89.11,2.99,1.73,4.51,4.15,5.62.2.09.5.4.49.41-1.37,1.82.58,1.06,1.08,1.36.42.25,1.33.37,1.33.55.01,2.56,3.62,1.05,3.97,3.5.05.36,2.21.72,3.44,1.79,1.43,1.25,3.15,3.56,5.88,2.88.16-.04,1.79.04.35,1.01-.47.31-.07.78.44.83,1.03.09,1.54.31,1.86,1.6.29,1.18,4.83.49,5.35-.73,1.65-3.9,3.36-7.77,4.91-11.71,1.65-4.18,3.3-8.38,3.75-12.91.04-.38-.02-.69.17-1.12,1.49-3.49,2.9-7.02,3.61-10.77.25-1.32.09-2.83.69-3.94.94-1.75,1.42-3.53,1.56-5.45.07-.99-.19-2.72.19-2.87,3.13-1.24,1.44-3.88,1.81-5.83.83-4.3,1.69-8.64,1.95-12.99.35-5.79-.04-11.63.24-17.43.2-4.04-1.59-7.7-1.71-11.61-.11-3.84-2.39-6.63-4.05-9.76-.59-1.11-1.65-1.86-2.15-2.76-1.06-1.93-1.75-3.84-4.41-3.74-.39.01-.87.11-1.14-.45.59-.43,1.69.27,2.02-.96Zm-.92,119.97c-.54,1.68-1.67,2.7-2.42,3.96-2.5,4.18-5.3,4.87-9.28,2.15-9.01-6.16-18.84-11.01-27.74-17.32-1.06-.75-1.51-.29-2.1.43-3.06,3.7-6.13,7.39-9.19,11.08-3.79,4.57-8.15,8.67-11.22,13.84-1.81,3.04-1.75,4.11.93,6.06,4.69,3.42,8.95,7.36,13.23,11.26,1.57,1.43,2.62,1.08,3.87.26,8.34-5.41,17.15-7.69,26.89-4.27,6.55,2.3,12.35,5.54,15.06,12.44.43,1.1,1.05,1.17,1.73.77,1.38-.82,2.94-1.6,3.91-2.81,2.49-3.14,5.85-5.12,9.05-7.3,4.37-2.99,5.07-6.23,2.13-10.71-4.46-6.8-9.56-13.12-14.82-19.81Z"/>
  <path class="cls-1" d="m46.58,324.54c-.13-6.02,1.38-12.86,2.88-19.78,1.32-6.12,3.41-11.78,6.74-17.01,1.79-2.82,4.09-5.23,6.69-7.32,1.51-1.21,5-.97,6.53.23,2.35,1.85,2.79,4.7.73,6.91-3.39,3.64-5.86,7.81-7.79,12.34-1.58,3.71-1.99,7.74-3.06,11.59-1.24,4.44-.99,8.91-.93,13.38.07,4.9,1.16,9.69,1.79,14.53.94,7.15,3.26,14.15,2.62,21.49-.1,1.11.05,2.27-.64,3.25-.96,1.38-2.23,2.86-3.84,2.73-1.87-.15-3.47-1.67-4.25-3.35-2.8-5.99-4.16-12.44-5.48-18.89-1.28-6.28-2.04-12.59-1.99-20.1Z"/>
  <path class="cls-1" d="m229.7,412.62c-.57,6.86-2.06,13.15-4.55,19.18-1.55,3.76-2.96,7.63-4.96,11.14-3.67,6.45-7.38,13.02-14.29,16.66-1.4.74-3.48,1.06-4.79-.41-1.45-1.64-3.98-2.66-2.74-5.94,1.91-5.05,5.12-9.34,7.53-14.08,2.69-5.28,4.8-10.77,6.72-16.33,2.03-5.88,3.55-11.94,5.47-17.87.45-1.4,1.42-2.44,3.37-1.27,1.75,1.05,4.05.88,5.61,2.72,1.66,1.95,2.62,4,2.62,6.18Z"/>
  <path class="cls-1" d="m254.44,265.59c.21,5.14-1.1,9.78-1.8,14.5-.63,4.26-2.02,8.3-2.7,12.52-.5,3.1-1.67,6.01-4.57,7.83-2.88,1.81-6.87-.32-7.15-3.77-.36-4.36.89-8.53,1.6-12.73,1.11-6.54,2.03-13.06,1.7-19.71-.08-1.55-.11-3.11-.04-4.66.2-4.96-1.94-9.27-3.65-13.72-1.08-2.8-2.7-5.57-.77-8.77,2.23-3.69,5.44-4.03,8.34-.82,2.77,3.07,4.39,6.73,5.6,10.57,1.95,6.19,3.95,12.41,3.45,18.76Z"/>
  <path class="cls-1" d="m29.7,321.86c0-3.98-.42-8.02.09-11.94.92-7.01,1.69-14.15,5.97-20.24,1.64-2.33,3.49-3.92,6.58-3.43,2.28.36,3.72,2.35,2.83,4.48-4.78,11.4-5.49,23.41-4.65,35.46.38,5.44,1.34,11.02,3.69,16.17,1,2.2.01,4.02-1.79,5.41-1.51,1.17-2.84,1.01-4.56-.03-3.94-2.38-4.96-6.29-6.54-10.18-2.1-5.17-1.94-10.4-1.62-15.7Z"/>
  <path class="cls-1" d="m258.6,268.38c-.36-2.92.29-6.62.07-10.36-.31-5.17-1.98-9.93-3.84-14.63-1.07-2.71-1.26-5.33-.53-8.04.59-2.19,4.42-3.15,6.89-2.11,3.62,1.53,4.62,4.95,5.92,8.04,1.99,4.74,2.97,9.81,4.02,14.82.42,2,.47,4.21.1,6.21-.76,4.12-.6,8.27-.82,12.4-.18,3.28-1.55,5.79-4.36,7.55-1.93,1.21-3.64.98-5.09-.68-1.58-1.81-2.4-3.96-2.37-6.41.03-2,0-3.99,0-6.79Z"/>
  <path class="cls-1" d="m243.8,422.4c-1.12,5.15-1.31,10.45-2.89,15.59-1.46,4.75-2.88,9.5-4.66,14.13-.73,1.91-1.52,3.88-3.08,5.26-2.32,2.05-5.2,2.12-7.55.38-2.39-1.77-3.15-4.99-1.98-7.9,2.41-5.99,4.35-12.13,6.34-18.27,1.45-4.48,1.72-9.26,3.81-13.56.83-1.71,2.13-2.93,3.44-4.11,1.02-.93,2.35-.94,3.44.26,2.12,2.33,3.53,4.91,3.14,8.22Z"/>
  <path class="cls-1" d="m77.01,292.87c3.12-.07,5.44,3.54,5.12,7.1-.28,3.02-2.09,5.37-2.87,8.13-1.96,6.93-3.78,13.85-1,21.04,1.66,4.28-.83,8.16-4.62,7.48-4.53-.82-7.39-4.12-8.01-8.76-.38-2.8-1.59-5.57-.82-8.4,1.2-4.39,1.66-8.91,2.85-13.31,1.27-4.69,3.7-8.52,6.71-12.17.82-.99,1.83-.78,2.64-1.11Z"/>
  <path class="cls-1" d="m239.4,266.16c.15,4.6-.82,7.84-2.22,10.88-.88,1.9-2.12,3.84-4.87,3.39-2.47-.4-3.68-2.08-4.73-4.15-.99-1.95-1.09-3.97-.97-6.04.4-6.89-1.72-13.43-2.79-20.11-.35-2.16-.03-4.36,1.14-5.84,2.15-2.74,3.71-3.1,6.51-.98,3.46,2.61,4.97,6.17,5.97,10.27,1.11,4.54,1.39,9.16,1.95,12.58Z"/>
  <path class="cls-1" d="m194.4,430.79c-.62-3.87,1.89-6.73,3.36-9.85,2.05-4.35,3.06-9.09,5.27-13.35,1.28-2.45,4.81-2.8,6.93-.94,2.97,2.61,3.45,6.05,2.74,9.47-1.48,7.14-4.26,13.79-8.89,19.55-1.65,2.05-3.63,3-6.22,1.78-2.16-1.02-3.26-2.68-3.11-5.11.03-.51-.04-1.03-.06-1.55Z"/>
  <path class="cls-1" d="m203.06,53.89c-.06-1.88.84-3.39,2.21-4.45,6.68-5.18,13.43-10.28,21.16-13.85,3.38-1.56,6.89,0,8.11,3.46.78,2.22-.57,3.81-1.93,4.92-5.81,4.8-11.5,9.85-18.55,12.82-2.08.88-4.45,1.26-6.72,1.47-2.48.23-4.36-1.9-4.28-4.38Z"/>
  <path class="cls-1" d="m219.13,136.59c5.82-.14,10.99-.2,16.11.91,2.2.48,4.18,2.6,4.27,5.06.12,3.02-.62,4.27-3.55,4.52-7.02.61-14.05,1.55-21.12.24-2.77-.51-5.69-.08-8.39-1.23-1.64-.7-2.96-1.67-3.47-3.47-.56-1.99.55-3.85,1.8-4.6,1.56-.93,3.63-1.43,5.63-1.43,3.12,0,6.24,0,8.72,0Z"/>
  <path class="cls-1" d="m130.6,30.69c.53,3.68-.24,7.11-.94,10.56-.41,2.03-3.06,4.32-5.07,4.57-2.67.34-3.89-1.4-4.41-3.4-2.21-8.46-3.25-17.03-1.39-25.72.54-2.51,2.74-4.06,5.26-3.94,2.78.13,5.58,2.11,5.59,4.44.03,4.58,1.78,9,.96,13.5Z"/>
  <path class="cls-1" d="m245.73,86.56c4.36-.24,7.04.48,7.99,3.91.49,1.76.08,2.88-1.36,3.92-3.58,2.6-7.81,3.32-11.95,4.28-4.12.96-8.26,1.87-12.39,2.78-2.82.62-5.67.75-8.51.31-2.1-.33-3.1-2.24-3.08-3.89.01-1.29.66-3.05,2.65-3.64,5.92-1.77,11.79-3.71,17.66-5.66,3.11-1.04,6.21-2.05,9-2.01Z"/>
  <path class="cls-1" d="m164.7,35.56c.48-2.18.92-4.54,1.52-6.86.87-3.33,2.02-6.6,2.77-9.96.82-3.65,4.17-7.28,7.7-7.9,2.71-.47,5.74,3.63,5.05,6.66-1.63,7.05-4.88,13.52-7.27,20.29-.92,2.59-3.2,3.95-5.27,3.39-3.41-.93-4.4-2.39-4.5-5.63Z"/>
  <path class="cls-1" d="m88.06,51.62c0,2.38-2.03,4.91-4.38,5.62-2.2.67-4.79-.38-6.12-2.58-2.81-4.65-5.63-9.3-8.36-14.01-2.16-3.73-.3-7.78,3.85-8.92,2.63-.73,4.42.73,5.74,2.37,3.9,4.85,6.43,10.54,9.13,16.11.21.44.11,1.02.14,1.4Z"/>
  <path class="cls-1" d="m74.36,137.79c.37,2.07-.88,3.61-2.57,4.46-3.92,1.97-7.83,3.97-12.29,4.71-2.83.46-4.95-.22-6.53-2.42-.85-1.19.73-5.4,2.55-6.83,3.29-2.59,6.88-4.87,10.76-6.34,3.87-1.47,8.35.78,8.08,6.42Z"/>
  <path class="cls-1" d="m215.05,81.8c-2.39.56-3.46-.9-4.15-2.66-.67-1.69-.45-3.23.92-4.72,3.8-4.16,8.63-6.62,13.76-8.58,2.27-.87,5.62.59,7.01,3,1.25,2.17.28,3.93-1.33,5.47-4.56,4.37-10.29,6.2-16.21,7.49Z"/>
  <path class="cls-1" d="m139.14,37.24c-.04-4.16.66-7.88,2.18-11.32,1.13-2.56,3.05-4.57,6.25-4.53,2.6.03,5.14,3.06,4.34,5.61-1.4,4.43-1.93,9.12-4.08,13.34-1.77,3.47-6.12,4.45-8.13,1.62-1.11-1.56-.36-3.37-.56-4.71Z"/>
  <path class="cls-1" d="m66.67,160.55c-.26-2.16.82-3.88,2.27-5.35,2.18-2.21,4.69-4.03,7.43-5.49,1.75-.94,3.64-1.19,5.28.14,1.87,1.51,2.78,3.6,1.99,5.93-.73,2.14-1.65,4.27-3.94,5.4-2.31,1.14-3.86,3.35-6.55,4.13-4.36,1.27-6.5-.09-6.48-4.75Z"/>
  <path class="cls-1" d="m199.16,27.63c2.52-.37,4.11.6,5.15,2.61,1.18,2.28.21,4.07-1.29,5.74-2.7,3-5.53,5.84-9.21,7.66-1.73.86-3.46.86-4.8-.61-1.22-1.35-2.19-3.12-1.58-4.92,1.63-4.87,5.12-8.18,9.66-10.4.68-.33,1.51-.34,2.06-.09Z"/>
  <path class="cls-1" d="m103.04,36.07c.01,4.6-1.65,7.14-4.82,7.58-2.54.35-5.42-1.46-5.78-4.26-.42-3.3-1.74-6.46-1.32-9.9.29-2.38,1.86-4.35,4.38-4.89,2.9-.63,4.16.06,5.53,2.74,1.45,2.83,2.2,5.78,2.01,8.74Z"/>
  <path class="cls-1" d="m225.08,126.04c-3.33-.14-6.27.41-7.37-2.98-.65-2-.32-3.6,1.75-4.86,4.27-2.61,8.87-3.37,13.73-2.95,3.03.27,4.76,1.72,5.04,3.88.25,1.94-2.12,5.35-4.44,5.62-3.15.36-6.18,1.65-8.7,1.29Z"/>
  <path class="cls-1" d="m54.14,85.68c3.95-.02,7.56,1.34,11.12,2.84,1.84.78,2.73,2.2,2.88,4.21.16,2-1.41,2.56-2.63,3.43-3.49,2.51-7.07.9-10.51,0-1.71-.45-3.44-1.29-4.83-2.57-1.51-1.4-2.72-2.73-1.7-5.11.94-2.19,2.47-2.89,4.63-2.8.35.02.69,0,1.04,0Z"/>
  <path class="cls-1" d="m60.94,110.05c1.73.28,3.45-.13,5.29.6,2.29.92,3.24,2.64,3.44,4.56.24,2.25-1.36,4.05-3.22,5.21-3.96,2.46-11.11.55-13.76-2.59-1.36-1.61-1.36-3.08-.21-4.62,2.12-2.83,5.1-3.53,8.46-3.16Z"/>
  <path class="cls-1" d="m75.27,68.71c0,3.52-3.27,5.74-6.59,4.88-2.26-.58-4.37-1.37-6.28-2.69-1.49-1.03-2.58-2.21-2.23-4.25.35-2.02,1.74-3.2,3.38-3.95,3.13-1.43,10.43,1.9,11.6,5.15.11.32.1.68.12.86Z"/>
</svg>