<?xml version="1.0" encoding="UTF-8"?>
<svg xmlns="http://www.w3.org/2000/svg" viewBox="0 0 1458.11 380.89">
  <defs>
    <style>
      .cls-1 {
        font-family: PlayfairDisplay-Regular, 'Playfair Display';
        font-size: 320px;
        font-variation-settings: 'wght' 400;
      }

      .cls-2 {
        stroke-width: 0px;
      }

      .cls-3 {
        letter-spacing: 0em;
      }

      .cls-4 {
        letter-spacing: .76em;
      }
    </style>
  </defs>
  <g id="Livello_2" data-name="Livello 2">
    <g>
      <path class="cls-2" d="m610.25,307.86c-17.74-1.3-37.6.29-57.45,1.24-31.72,1.53-63.46,2.3-95.14.39-14.89-.9-29.71-.84-44.56-.93-4.87-.03-9.75.55-14.63.65-3.72.07-4.51-1.12-3.46-4.71,2.45-8.35,6.11-16.43,7.31-25.03,1.81-12.96,11.49-20.84,18.32-30.58,2.66-3.79,5.69-7.33,8.54-10.99.58-.75,1.17-1.61.43-2.52-4.94-6.03-2.81-12.68-1.35-19.03,4.29-18.68,9.05-37.28,16.2-55.08,4.77-11.88,12.29-22.04,23.15-29.41,5.38-3.66,10.68-7.31,16.71-9.96,8.65-3.81,17.6-5.04,26.87-4.66,2.87.12,4.61-.74,6.23-3.24,4.43-6.82,9.99-12.81,14.88-19.31,3.55-4.72,8.46-4.66,13.14-1.01,2.1,1.64,4.39,3.05,6.41,4.77,4.65,3.94,5.04,7.88,1.44,12.74-2.7,3.64-5.38,7.3-8.14,10.9-1.15,1.5-1.18,2.56.55,3.68,17.91,11.65,26.17,28.95,28.45,49.51.57,5.17,2.9,9.53,4.8,14.06,5.02,11.99,9.71,24.12,15.45,35.8,4.81,9.79,9.58,19.61,14.32,29.45.98,2.03,2.75,3.12,4.52,4.2,7.16,4.34,12.28,10.56,16.47,17.66,1.36,2.31,1.02,4.2-.81,6.28-5,5.66-9.86,11.43-15.28,16.7-.62.61-1.66,1.27-1.19,2.29.48,1.03,1.67.55,2.52.55,11.05.03,22.1,0,33.15-.02.93,0,1.86-.06,2.79-.04,1.49.04,2.4.78,2.57,2.29.17,1.52-.63,2.35-2,2.86-1.47.54-2.98.47-4.48.47-11.52.02-23.03.01-36.71.01Zm-132.35-111.53c1.25,4.17,2.95,8.22,7.46,9.28,6.88,1.61,13.8,2.77,21.04,2.12,10.76-.98,21.44-2.38,32.1-4.02,2.94-.45,4.99.69,6.22,3.32,3.11,6.62,6.85,13.04,9.14,19.94,5.46,16.48,12.89,32.1,19.8,47.95,1.15,2.63,2.13,3.15,4.47,1.27,7.53-6.05,15.45-11.57,23.56-16.81,2.08-1.34,1.98-2.68.99-4.65-3.67-7.25-7.32-14.52-10.77-21.88-5.67-12.08-11.32-24.17-16.12-36.64-2.71-7.04-6.26-13.73-9.3-20.62-2.86-6.47-7.38-10.48-13.93-11.86-8.03-1.69-16.11-1.95-23.89,1.77-6.08,2.9-12.26,5.6-18.47,8.21-2.57,1.08-3.27,2.08-1.78,4.85,3.6,6.68,1.02,15.4-5.58,19.13-8.49,4.81-16.81,4.33-24.95-1.36Zm-37.38,39.38c4.45.14,7.31-2.28,9.64-5.9,7.51-11.69,12.48-24.65,18.42-37.11,4.42-9.27,9.72-18.32,10.41-28.98.09-1.45,1.17-2.45,2.58-2.34,2.17.17,3.04-1.21,4.08-2.65,3.05-4.23,5.91-8.59,9.09-12.75,5-6.53,10.4-12.81,14.45-20.06,1.57-2.8.83-3.3-1.98-3.21-6.31.2-12.38,1.03-18.37,3.4-6.47,2.56-12.16,6.17-17.81,10.1-10.47,7.3-17.68,17.11-22.13,28.82-4.95,13.02-8.91,26.39-12.16,39.96-.62,2.59-.5,3.61,2.47,4.13,6.64,1.17,9.61,4.76,9.7,11.17.1,6.62-3.27,11.4-8.42,15.42Zm-33.31,67.19c30.11-2.08,60,3.27,90.05,1.49-.4-.73-.82-1.13-1.32-1.34-11.15-4.55-21.11-11.13-30.89-18.04-5.92-4.18-10.35-9.64-13.35-16.2-2.5-5.47-1.36-7.52,4.72-8.55,10.14-1.71,20.16-.55,30.03,1.82,2.65.64,4.06.13,5.4-2.14,3.23-5.51,6.7-10.87,9.95-16.37.59-1,2.53-2.15.82-3.5-1.32-1.04-2.24.54-3.22,1.27-5.65,4.17-11.76,4.81-18.04,1.86-2.22-1.04-3.52-.75-5.16.85-3.09,3.01-6.62,5.43-11.21,3.83-3.62-1.26-5.95-.32-7.39,3.14-.13.31-.39.58-.61.85-8.2,10.25-16.45,20.45-24.57,30.76-3.82,4.85-8.05,9.03-13.34,12.43-3.92,2.52-8.04,4.8-11.89,7.85Zm143.06-69.59c-.33-1.04-.53-1.95-.89-2.8-2.07-4.8-4.1-9.61-6.29-14.35-2.92-6.32-2.97-6.19-9.9-5.92-1.94.08-2.61.77-2.99,2.52-.83,3.86-1.74,7.7-2.8,11.5-2.14,7.62-6.27,13.44-14.49,15.36-1.77.41-3.05,1.46-4.02,3.07-3.83,6.37-7.72,12.71-11.69,19-1.1,1.75-.79,2.72.74,4.07,2.83,2.5,6.53,3.45,9.44,5.85,3.57,2.94,7.53,5.43,11.37,8.04,1.63,1.11,3.31,1.87,4.73-.44,8.78-14.37,18.03-28.46,25.82-43.42.42-.81.68-1.7.99-2.48Zm-21.78,71.6c0-.15,0-.31,0-.46,4.88,0,9.77-.04,14.65.01,2.91.03,5.66.13,5.88-3.98.05-1.01,1.12-1.99,1.78-2.94,4.35-6.28,10.27-10.72,17-14.09,2.43-1.22,2.67-2.35,1.59-4.84-4.89-11.28-10.54-22.24-14.91-33.75-.38-1.01-.33-2.65-1.76-2.67-1.08-.01-1.4,1.43-1.86,2.32-4.12,8.09-9.04,15.71-13.99,23.29-4.85,7.42-8.24,15.68-15.78,21.5-4.02,3.1-6.43,8.67-10.15,12.69-.57.62-1.66,1.24-1.04,2.32.56.98,1.67.57,2.56.58,5.34.02,10.69,0,16.04,0Zm53.31-23.84c1.32,1.01,2.87.76,4.31.96,1.57.22,2.59,1.04,2.57,2.73-.02,1.72-1.15,2.54-2.67,2.64-1.37.09-2.76-.29-4.15-.29-2.86.02-5.75-1.73-8.55-.31-5.69,2.9-11.39,5.84-15.55,10.93-.71.87-2.16,1.68-1.77,2.81.52,1.49,2.22.76,3.41.86,14.79,1.24,29.42-1.1,44.11-1.97,1.72-.1,3.14-.91,4.3-2.07,5.24-5.26,10.44-10.56,15.17-16.3,1.17-1.41,1.45-2.72.35-4.39-3.5-5.29-7.66-9.87-13.1-13.26-1.84-1.14-3.27-1.12-5.05.16-6.69,4.81-13.49,9.47-20.2,14.25-1.19.85-2.57,1.6-3.18,3.24Zm-103.14-71.75c-.65-2.39-2.87-3.96-4.13-6.17-.7-1.23-.92-3.51-2.5-3.37-1.68.15-1.76,2.48-2.56,3.84-.17.3-.26.65-.4.97-4.44,10.36-9.22,20.56-15.5,29.97-3.8,5.68-10.3,8.28-16.65,6.51-2.08-.58-3.17.08-4.46,1.54-3.47,3.92-6.24,8.36-9.66,12.33-4.31,5-7.98,10.55-11.95,15.84-1.34,1.78-1.72,3.5.69,4.51,3.89,1.63,7.33,4.01,10.97,6.06,1.8,1.01,3.01.66,4.2-.84,1.66-2.09,3.41-4.12,5.05-6.22,7.14-9.17,15.31-17.54,21.76-27.21,7.67-11.5,14.91-23.28,23.57-34.1.82-1.02,1.38-2.14,1.57-3.65Zm-11.54,55.81c-1.86,0-3.73-.11-5.57.03-1.45.11-3.43-.39-4.15,1.15-.75,1.6.7,2.99,1.57,4.37,3.76,5.97,9.37,9.86,15.02,13.8,8.91,6.22,18.46,11.18,28.42,15.42,1.28.54,2.47.66,3.46-.55,3.16-3.86,6.81-7.3,9.36-11.67,1.11-1.91.97-3.08-.88-4.34-4.13-2.81-7.97-6.08-12.29-8.54-3.01-1.72-5.64-4.29-8.95-5.25-8.47-2.45-17.05-4.59-25.99-4.41Zm12.57-82.45c3.56-2.09,6.22-3.93,9.1-5.3,8.25-3.9,16.11-8.21,21.05-16.35,1.08-1.78,2.36-3.44,3.57-5.14,7-9.84,13.99-19.67,21.01-29.5,1.11-1.55,1.34-2.8-.41-4.12-2.41-1.81-4.76-3.72-7.01-5.72-2.27-2.02-3.54-1.33-5.18,1-6.16,8.71-11.52,17.97-18.23,26.33-6.82,8.5-13.03,17.48-19.04,26.59-2.33,3.53-3.11,7.58-4.86,12.21Zm86.71-18.11c-.16-1.32-.09-2.17-.38-2.87-5.04-12.41-11.04-24.07-23.19-31.29-2.37-1.41-3.51-1.19-5.02.98-7.1,10.2-14.34,20.3-21.5,30.45-.67.95-1.58,1.86-1.56,3.87,17.08-8.75,33.96-13.57,51.64-1.14Zm-78.14,74.85c4.68-.09,7.81-1.66,9.9-5.21,3.42-5.79,4.6-12.35,6.49-18.67.59-1.97-.75-2.03-2.16-1.99-3.74.11-7.43-.34-11.06-1.14-2.45-.54-3.32.16-3.52,2.66-.54,6.64-2.3,13.03-4.84,19.15-1.11,2.68-.45,3.93,2.08,4.59,1.23.32,2.49.49,3.1.6Zm21.13-4.66c3.69-.79,7.92-2.04,10.41-6.52,2.47-4.45,3.25-9.39,4.53-14.19.56-2.11-.4-2.74-2.39-2.43-2.29.35-4.6.85-6.9.85-3.2,0-4.36,1.73-5.08,4.52-1.24,4.82-2.52,9.66-4.22,14.33-1.2,3.29.34,3.59,3.66,3.44Zm-17.67-39.32c.89-.1,1.7-.14,2.49-.29,7.45-1.38,11.25-6.14,9.95-12.4-.79-3.79-3.39-5.25-6.84-3.67-5.17,2.37-10.01,5.29-14.58,8.69-1.57,1.17-1.71,2.14-.54,3.69,2.45,3.25,6,3.6,9.52,3.98Zm-9.67,22.1c-.32-.13-.63-.27-.95-.4-.52.58-1.07,1.14-1.54,1.76-4.99,6.43-9.72,13.04-14.05,19.94-.58.92-1.91,1.9-.92,3.02.82.93,2.28,1.11,3.58.85,1.41-.28,2.54-1.1,3.61-2.01,7.24-6.12,8.37-14.79,10.26-23.15Zm62.27-105.04c2.1-.8,2.8-2.96,4.15-4.46,1.7-1.88,1.68-3.77-.46-5.33-2.42-1.76-4.88-3.47-7.38-5.12-1.97-1.31-3.42,0-4.42,1.39-1.04,1.44-3.1,2.79-1.51,5.1,2.27,3.3,5.77,5.29,8.6,7.99.23.22.62.27,1.01.43Zm-100.82,108.1c-.11-.71-.11-1.67-.41-2.53-1.06-3.05-3.7-3.54-6.43-3.72-2.97-.2-2.74,2.22-3.13,4.05-.46,2.15-.94,4.3-1.22,6.48-.21,1.65-.83,3.56,1.29,4.59,2.17,1.05,4.32,1.02,6.13-.69,2.27-2.14,3.55-4.82,3.77-8.19Zm-31.79,72.56c1.32-.23,2.2-1.4,3.3-2.2q5.62-4.09-.11-7.7c-6.66-4.18-6.73-4.15-8.65,3.57-.64,2.6,2.59,6.45,5.46,6.32Zm128.99-175.44c-.34-.48-.56-.88-.87-1.21-2.73-2.96-6.44-4.82-8.9-8.11-.56-.75-1.47-.45-2.1.25-.62.69-.81,1.47-.03,2.11,3.19,2.65,6.4,5.25,9.63,7.86.45.37,1.05.62,1.58.22.32-.24.46-.73.69-1.12Z"/>
      <path class="cls-2" d="m660.31,302.24c2.94-.04,4.97.07,5.04,2.6.08,2.82-2.19,2.84-4.17,2.87-2.01.03-4.27-.08-4.21-2.84.06-2.79,2.37-2.61,3.35-2.63Z"/>
      <path class="cls-2" d="m643.58,285.45c-1.66-.27-2.79-1-2.73-2.67.08-2.08,1.39-3.07,3.4-3.03,1.67.03,2.54,1.05,2.43,2.67-.13,1.92-1.53,2.65-3.1,3.03Z"/>
      <path class="cls-2" d="m637.42,296.7c-1.71-.18-2.87-.97-2.9-2.79-.03-1.85,1.12-2.75,2.83-2.73,1.67.02,2.89.89,2.87,2.73-.02,1.77-1.05,2.7-2.81,2.78Z"/>
    </g>
  </g>
  <g id="Livello_1" data-name="Livello 1">
    <text class="cls-1" transform="translate(22.34 303.77)"><tspan x="0" y="0">D</tspan><tspan class="cls-4" x="231.36" y="0">r</tspan><tspan class="cls-3" x="616.63" y="0">wYou</tspan></text>
  </g>
</svg>