<?xml version="1.0" encoding="UTF-8"?>
<svg id="Livello_1" data-name="Livello 1" xmlns="http://www.w3.org/2000/svg" viewBox="0 0 200 200">
  <defs>
    <style>
      .cls-1, .cls-2 {
        stroke-width: 0px;
      }

      .cls-2 {
        fill: #fff;
      }
    </style>
  </defs>
  <g>
    <path class="cls-2" d="m0,0c66.67,0,133.33,0,200,0,0,66.67,0,133.33,0,200-66.67,0-133.33,0-200,0C0,133.33,0,66.67,0,0Zm178.02,189.46c.4-8.85-1.58-16.94-9.15-22.18-5.29-3.66-11.3-6.28-17.03-9.3-2.08-1.1-4.26-2-5.09-2.39,8.12.51,17.33,1.2,26.55,1.64,8.83.43,10.24-1.49,10.01-10.35-.19-6.91.13-13.9,1.05-20.74,1.12-8.37.17-16.19-5.31-22.63-6.59-7.75-9.35-16.56-10.34-26.48-1.36-13.56-4.32-26.88-13.57-37.47-3.69-4.22-8.59-8.55-13.75-10.04-6.74-1.94-14.35-1.89-21.47-1.3-11.41.94-18.78,8.49-23.29,18.25-4.78,10.34-11.1,19.22-19.45,26.88-6.21,5.69-9.1,12.98-8.78,21.5.27,7.47-2.04,14.14-6.84,19.86-3.49,4.16-4.73,8.78-4.82,14.26-.08,4.68-1.19,9.63-3.11,13.89-1.55,3.45-.75,4.77,2.01,6.24,8.21,4.36,16.9,5.98,26.11,4.64,3.34-.49,6.68-1.04,10.02-1.57-2.2,2.03-4.71,3.25-7.14,4.6-5.8,3.24-11.9,6.08-17.26,9.93-6.98,5.01-11.22,17.6-8.46,24.17-.31-17.75,10.36-26.39,25.82-31.95-.42,13.28-2.37,25.57-10.03,37.4h79.95c-2.02-6.15-4.35-12.04-5.85-18.15-1.54-6.3-1.59-12.74,1.35-20.09,6.53,3.84,12.71,7.02,18.39,10.94,6.96,4.81,7.83,12.88,9.5,20.41Z"/>
    <path class="cls-1" d="m178.02,189.46c-1.67-7.53-2.54-15.6-9.5-20.41-5.67-3.92-11.86-7.1-18.39-10.94-2.94,7.35-2.9,13.79-1.35,20.09,1.5,6.1,3.83,12,5.85,18.15h-79.95c7.66-11.83,9.61-24.11,10.03-37.4-15.47,5.56-26.13,14.2-25.82,31.95-2.76-6.57,1.48-19.16,8.46-24.17,5.37-3.85,11.46-6.69,17.26-9.93,2.43-1.36,4.94-2.57,7.14-4.6-3.34.52-6.67,1.08-10.02,1.57-9.21,1.34-17.9-.28-26.11-4.64-2.76-1.47-3.56-2.79-2.01-6.24,1.91-4.27,3.03-9.22,3.11-13.89.09-5.48,1.33-10.1,4.82-14.26,4.8-5.72,7.11-12.39,6.84-19.86-.31-8.52,2.57-15.81,8.78-21.5,8.35-7.66,14.67-16.54,19.45-26.88,4.51-9.76,11.88-17.32,23.29-18.25,7.12-.58,14.73-.64,21.47,1.3,5.16,1.49,10.06,5.81,13.75,10.04,9.25,10.59,12.22,23.91,13.57,37.47.99,9.91,3.75,18.73,10.34,26.48,5.48,6.44,6.43,14.26,5.31,22.63-.91,6.85-1.23,13.84-1.05,20.74.24,8.86-1.17,10.78-10.01,10.35-9.22-.45-18.43-1.13-26.55-1.64.83.39,3.01,1.29,5.09,2.39,5.72,3.02,11.74,5.64,17.03,9.3,7.57,5.23,9.55,13.33,9.15,22.18Zm-29.69-103.08c.57.08,1.14.16,1.71.24-.9-2.81-1.52-5.74-2.74-8.4-2.48-5.43-5.26-10.72-7.97-16.04-.9-1.77-1.84-3.57-3.06-5.13-4.56-5.81-9.19-6.93-15.76-3.77-9.75,4.71-14.33,13.21-17.53,23.1-1.74,5.39-5.09,10.24-7.61,15.39-.68,1.4-1.43,3.02-1.34,4.49.86,14.02,5.95,26.19,16.49,35.75,8.96,8.13,15.63,7.77,23.42-1.36,10.76-12.61,19.15-26.14,14.39-44.28Zm-41.79,48.53c.99,13.17-8.9,16.3-16.67,21.17,13.49,13.61,41.37,13.73,54.64.23-6.68-3.74-8.73-10.1-8.99-18.29-2.23,3.92-3.52,6.84-5.37,9.33-5.02,6.76-11.45,6.87-16.4.12-2.52-3.43-4.3-7.41-7.21-12.56Zm-19.75-28.07c-.43.05-.86.1-1.3.15v20.46c5.29-6.2.09-13.64,1.3-20.61Zm77.16.02c-1.61-6.85-3.48-14.85-5.36-22.85,1.5,8.26-.61,17.5,5.36,22.85Zm-13.84,26.18c.2-.08.4-.16.6-.25,1.01-3.47,1.76-7.05,3.1-10.39,1.8-4.52,3.42-8.9.58-13.65,1.7,5.91-.79,10.88-3.04,16.05-1.07,2.46-.87,5.47-1.25,8.24Zm-26.05-88.47c-6.58,2.38-14.4,2.63-18.19,8.5,5.59-2.61,11.89-5.56,18.19-8.5Zm24.78,26.78c.36-.14.72-.27,1.08-.41-1.49-5.79-2.98-11.58-4.47-17.37-.3.09-.59.18-.89.27,1.42,5.84,2.85,11.68,4.27,17.51Z"/>
    <path class="cls-2" d="m148.34,86.38c4.76,18.15-3.62,31.68-14.39,44.28-7.79,9.13-14.46,9.48-23.42,1.36-10.54-9.55-15.62-21.72-16.49-35.75-.09-1.47.66-3.09,1.34-4.49,2.51-5.15,5.87-10.01,7.61-15.39,3.2-9.89,7.78-18.39,17.53-23.1,6.56-3.17,11.2-2.04,15.76,3.77,1.22,1.55,2.15,3.36,3.06,5.13,2.72,5.32,5.49,10.61,7.97,16.04,1.22,2.66,1.85,5.59,2.74,8.4-.57-.08-1.14-.16-1.71-.24Zm-28.56,3.45c-.61-.06-1.21-.12-1.82-.18-.73,5.33-1.86,10.65-2.06,16.01-.19,4.89,3.48,6.41,7.82,3.72-6.51-.53-7.27-1.45-6.17-8.02.64-3.86,1.48-7.68,2.23-11.52Zm-2.87-6.16c-2.67-5.13-8.93-5.79-12.69-1.06,4.36.36,8.48.71,12.69,1.06Zm13.36,33.36c-5.93.48-12.62,1.03-18.58,1.52,3.33,3.24,14.06,2.42,18.58-1.52Zm3.5-34.34c3.84-.18,7.43-.34,11.59-.53-5.27-4.14-8.7-3.92-11.59.53Z"/>
    <path class="cls-2" d="m106.55,134.91c2.91,5.15,4.69,9.12,7.21,12.56,4.95,6.74,11.37,6.63,16.4-.12,1.85-2.49,3.14-5.41,5.37-9.33.25,8.19,2.31,14.56,8.99,18.29-13.26,13.51-41.15,13.38-54.64-.23,7.77-4.87,17.66-8,16.67-21.17Z"/>
    <path class="cls-2" d="m86.8,106.84c-1.21,6.97,3.99,14.41-1.3,20.61v-20.46c.43-.05.86-.1,1.3-.15Z"/>
    <path class="cls-2" d="m163.96,106.86c-5.96-5.35-3.86-14.59-5.36-22.85,1.88,8,3.75,16,5.36,22.85Z"/>
    <path class="cls-2" d="m150.13,133.04c.38-2.76.18-5.77,1.25-8.24,2.24-5.17,4.74-10.14,3.04-16.05,2.83,4.75,1.22,9.13-.58,13.65-1.33,3.34-2.09,6.92-3.1,10.39-.2.08-.4.16-.6.25Z"/>
    <path class="cls-2" d="m124.08,44.57c-6.3,2.95-12.6,5.89-18.19,8.5,3.79-5.88,11.61-6.12,18.19-8.5Z"/>
    <path class="cls-2" d="m148.86,71.35c-1.42-5.84-2.85-11.68-4.27-17.51.3-.09.59-.18.89-.27,1.49,5.79,2.98,11.58,4.47,17.37-.36.14-.72.27-1.08.41Z"/>
    <path class="cls-1" d="m119.77,89.83c-.75,3.84-1.59,7.67-2.23,11.52-1.1,6.57-.34,7.49,6.17,8.02-4.34,2.7-8.01,1.17-7.82-3.72.2-5.35,1.33-10.67,2.06-16.01.61.06,1.21.12,1.82.18Z"/>
    <path class="cls-1" d="m116.9,83.67c-4.2-.35-8.32-.69-12.69-1.06,3.76-4.74,10.02-4.07,12.69,1.06Z"/>
    <path class="cls-1" d="m130.26,117.03c-4.51,3.94-15.24,4.75-18.58,1.52,5.96-.49,12.65-1.03,18.58-1.52Z"/>
    <path class="cls-1" d="m133.76,82.69c2.89-4.46,6.33-4.67,11.59-.53-4.16.19-7.76.36-11.59.53Z"/>
  </g>
  <ellipse class="cls-1" cx="110.81" cy="89.04" rx="3.38" ry="1.91"/>
  <ellipse class="cls-1" cx="135.43" cy="89.04" rx="3.38" ry="1.91"/>
</svg>