<?xml version="1.0" encoding="UTF-8"?>
<svg id="Livello_1" data-name="Livello 1" xmlns="http://www.w3.org/2000/svg" viewBox="0 0 200 200">
  <defs>
    <style>
      .cls-1 {
        fill: #fff;
        stroke-miterlimit: 10;
      }

      .cls-1, .cls-2 {
        stroke: #000;
      }

      .cls-2 {
        fill: none;
        stroke-linecap: round;
        stroke-linejoin: round;
        stroke-width: 2px;
      }
    </style>
  </defs>
  <g>
    <path class="cls-2" d="m143,56.5c1.73-7.1-.72-13.19-4.49-19.01-8.61-13.28-33.04-17.62-44.6-9.12-9.92,7.3-15.31,16.7-16.86,28.63-.06.45.62.99.95,1.49"/>
    <path class="cls-2" d="m72,146c-6.84,3.06-13.64,6.17-19.51,10.99-9.03,7.41-12.99,17.44-14.99,28.51"/>
    <path class="cls-2" d="m174.5,188.5c.57-16.99-7.07-28.48-22.99-34.54-2.77-1.06-5.35-2.63-8.01-3.96"/>
    <path class="cls-2" d="m89.5,118.5c2.83,4.03,6.56,7.29,10.58,9.87,4.3,2.75,9.44,1.92,13.87.01,4.71-2.03,9.15-4.82,12.55-8.88"/>
    <path class="cls-2" d="m125,137c3.69-.24,6.63,1.42,9.52,3.47,3.05,2.16,6.29,4.07,9.49,6.12-.31,2.55-1.51,4.64-3.48,6.45-2.44,2.24-4.86,4.52-6.55,7.46-1.73,3.01-4.22,3.1-6.98,1.5-.72-.42-1.27-1.14-2.02-1.46-8.62-3.75-13.99-1.44-16.55,7.46-.5,1.74-.18,4.06-2.44,5.02"/>
    <path class="cls-2" d="m142.5,92c6.3-.07,12.58-9.18,10-14.5-1.56-3.21-3.64-3.75-7.01-2.02-1.96,1.01-3.46,2.51-4.99,4.02"/>
    <path class="cls-2" d="m104.5,70.5c-3.17,8.78-4.63,17.73-2.5,27"/>
    <path class="cls-2" d="m89,139.5c-1.66,3.67,1.25,5.74,3.07,7.94,2.39,2.9,5.24,5.42,7.94,8.05,2.01,1.95,2.75,4.29,2.49,7.01"/>
    <path class="cls-2" d="m89.5,138.5c1.17-3.03-.5-4.48-2.94-3.37-4.87,2.22-9.37,5.24-14.08,7.84-1.08.6-.58,1.79-.42,1.97,4.55,5.3,4.52,12.98,9.41,18.14,3.37-1.04,6.65-2.26,10.03-3.04,7.39-1.71,11.65,1.04,12.91,8.47.39,2.31,2.1,4.46,1.08,6.99"/>
    <path class="cls-2" d="m146,86c3.4-1.77,3.66-4.38,2.17-7.78-4.47,1.74-5.87,5.39-6.09,9.28-.71,12.49-5.04,23.1-15.07,31"/>
    <path class="cls-2" d="m138,100c-6.1,2.31-11.21-.56-16.54-2.91-2.25-.99-4.94-.93-7.46-.11-1.81.58-3.7,1.55-5.49,1.42-6.5-.48-12.75.05-19.05,1.95-3.08.93-6.6.29-9.46-1.86"/>
    <path class="cls-2" d="m76,75c-2.91-1.72-5.76-4.18-9.01-.51-2.22,2.52-2.02,8.07.52,11.5.06.08.35.07.48,0,.2-.12.34-.32.51-.49"/>
    <path class="cls-2" d="m125,123.5c2.17,2.97-.59,5.71-.39,8.49.25,3.4-2.93,7.79,2.61,9.95-2.62,5.54-7.12,9.07-11.69,12.59-2.07,1.59-5.45,2.6-4.03,6.46"/>
    <path class="cls-2" d="m79,100.5c.62,7.26,5.23,12.18,10,17"/>
    <path class="cls-2" d="m91,123.5c-2.74,3.45,1.02,7.49-1,11"/>
    <path class="cls-2" d="m142.5,58.5c-1.2,4.29,1.55,8.74-.5,13"/>
    <path class="cls-2" d="m77.5,77.5c-1.6,1.79-1.38,4.05-.91,5.98.74,3.05.77,6.28-2.17,7.31-2.93,1.03-5.37-1.19-6.43-4.29"/>
    <path class="cls-2" d="m76,79.5c-.5-.17-1.08-.23-1.49-.52-1.21-.88-1.98-2.96-4.01-1.47-1.67,1.23-2.23,2.97-2,4.99.12,1,1.25,2,0,3"/>
    <path class="cls-2" d="m115.5,88.5c.2,2.5-.49,5.05.5,7.5"/>
    <path class="cls-2" d="m84,94c-4.57-2.12-3.73,1.85-4.52,3.99-.02.05-.35.07-.47,0-.2-.12-.34-.32-.51-.49"/>
    <path class="cls-2" d="m142.5,77c-1.48-1.38,1.22-5.26-3-5"/>
    <path class="cls-2" d="m76,90.5c.67,2,1.33,4,2,6"/>
    <path class="cls-2" d="m69.5,85c.72,1.12,1.43,2.24,1.78,2.78,4.29-.93,1.63-3.01,2.22-4.28"/>
    <path class="cls-2" d="m78,60.5c-2.44,4.46-.04,9.44-1.5,14"/>
    <path class="cls-2" d="m78,64.5c.83-.33,2.6,1.67,2.5-1"/>
  </g>
  <ellipse class="cls-1" cx="92.24" cy="73.43" rx="4.71" ry="7.72"/>
  <ellipse class="cls-1" cx="123.13" cy="73.43" rx="4.71" ry="7.72"/>
</svg>