<?xml version="1.0" encoding="UTF-8"?>
<svg id="Livello_1" data-name="Livello 1" xmlns="http://www.w3.org/2000/svg" viewBox="0 0 200 200">
  <defs>
    <style>
      .cls-1 {
        stroke-width: 0px;
      }
    </style>
  </defs>
  <path class="cls-1" d="m121.01,186.52c-1.47-.19-1.73-.8-1.82-1.47-1.61-13.05-4.02-26.07-1.48-39.28.29-1.52,1.24-3.88-1.12-4.14-2.53-.28-1.57,2.41-1.87,3.8-1.54,7.16-2.94,14.36-4.33,21.55-.95,4.91-3.92,8.09-8.54,9.55-14.57,4.61-28.97,3.1-43.14-1.78-4.25-1.47-4.66-5.44-4.33-9.19.48-5.47,1.41-10.9,2.08-16.35.22-1.75,1.19-3.47-.18-5.42-3.24,15.74-8.19,31.01-12.37,46.51,1.37-14.95,7.64-28.88,9.47-44.5-8.23,4.67-15.09,10.03-19.79,17.85-4.65,7.73-5.83,16.42-6.47,26.37-2.13-2.65-1.29-4.45-1.19-6.04.92-15.11,7.44-27.11,20.1-35.6,6.16-4.13,12.37-8.19,18.47-12.78-4.63,1.1-6.97-3.08-10.58-4.29-7.14-2.39-14.37-3.76-21.65-5.16-2.48-.48-3.7-1.65-4.28-4.1-2.11-8.9-.96-17.54,3.86-25.04,5.47-8.5,7.91-17.65,8.16-27.4.51-19.67,11.13-33.16,26.55-43.28,13.53-8.88,28.68-11.07,43.97-5.33,7.11,2.67,14.31,6.41,19.36,12.48,5.65,6.78,7.46,15.14,7.76,23.82.16,4.66.17,9.33.21,14,.07,9.5,2.03,18.47,6.92,26.76,2.89,4.9,5.07,10.13,5.87,15.84.64,4.55-3.47,10.26-7.95,11.22-2.09.45-2.04-.38-1.89-2.12.65-7.57.57-7.57-1.72-11.34.12,2.48.27,4.41.29,6.34.09,8.04-3.76,12.05-12.05,12.6-.31.02-.79-.01-.9.16-3.11,4.91-9,4.31-14.18,6.97,12.7,5.43,26.11,8.86,32.21,22.59,3.27,7.36,5.47,14.88,5.76,23.17-2.61-.72-1.22-3.12-2.47-4.17-5.77,2.73-10.26,1.41-13.58-4.3-.94-1.62-2.29-1.62-3.71-1.99-.91-.24-2.16-.8-1.58-1.97.48-.98,1.68-.71,2.68-.31,5.06,2.05,10.49.33,13-4,.75-1.3-.12-2.22-.52-3.25-3.9-10.06-11.57-15.94-21.38-19.64-3.17-1.2-2.95,1.02-3.23,2.66-1.46,8.62-1.29,17.24-.04,25.88.67,4.64,1.08,9.32,1.62,14.11Zm-60.51-81.05c-2.81,4.31-3.48,8.69-1.29,13.6,1.3,2.9,1.16,6.22.46,9.32-.59,2.61-.81,4.67,2.66,4.94,3.38.27,4.19-2.3,3.78-4.53-1.46-7.85.18-16.5-5.67-23.28-3.07-6.75-.24-15.44-6.91-21.01q2.03,15.45-4.37,31.09c-1.07,2.63-1.87,5.32-1.99,8.19-.21,4.96,4.46,4.58,7.03,5.58,2.05.8,2.14-2.7,2.51-4.45.64-3.12.46-6.3-.35-9.4-1.17-4.45.16-7.82,4.15-10.06Zm69.09-20.98c4.41,3.69,6.01,8.54,5.79,14.12-.08,1.96-.98,4.19.76,5.7,5.57,4.83,7.53,11.02,6.81,18.37,2.8-.68,3.14-2.32,3.21-4.3.18-4.77-.62-9.29-2.94-13.49-1.92-3.5-4.43-6.81-5.68-10.53-2.69-8.03-2.58-16.98-8-24.14,2.1,3,4.19,6,6.36,9.1,0-7.64.13-14.78-.03-21.92-.19-7.97-2.07-15.51-6.69-22.17-4.85-7-11.09-8.48-18.25-4.22-3.68,2.19-7.23,4.6-10.84,6.92,3.29-4.67,8.47-6.73,13.15-9.48.97-.57,2.55-.76,2.61-2.03.07-1.52-1.48-2.1-2.66-2.66-4.24-2.05-8.72-3.18-13.41-3.71-28.2-3.16-58.34,21.5-58.12,49.89.08,9.67-2.38,18.95-8.04,27.4-4.66,6.96-5.76,15.08-4.15,23.53.84,4.42,4.15,3.6,6.88,4.01,3.6.54,2.22-2.54,2.56-4.12.72-3.32,1.89-6.48,3.93-9.11,4.16-5.37,4.59-11.04,2.81-17.42-1.86-6.68-2.84-13.54-1.02-20.46-.29,6.37.2,12.69,2.17,18.76,2.5,7.68,1.85,14.66-3.25,21.18-2.07,2.65-2.78,5.98-3.16,9.36-.31,2.83,1.43,3.49,3.54,3.74,2.78.34,1.7-1.88,1.72-3.07.06-4.84,1.87-9.11,4.1-13.23,3.66-6.78,4.25-13.84,2.73-21.31-1.3-6.36-2.7-12.83-.8-19.28,4.57-15.54,16.26-23.22,30.89-27.65,5.84-1.76,12.23-1.31,17.68-4.5-2.4,2.62-2.15,5.21.07,7.78,1.84,2.13,3.55,4.41,5.58,6.34,5.46,5.21,8.36,11.38,8.16,19.05-.1,3.75.7,7.39,3.33,10.5,1.44-1.81,2.65-3.37,3.89-4.9,1.71-2.11-.16-4.12-.13-6.18.03-1.78,0-3.57,0-5.35.78,1.82.93,3.63,1.32,5.39.31,1.38-.18,3.77,1.48,3.89,7.44.57,5.52,5.98,5.74,10.38-2.97,3.31-6.96,21.41-5.95,27.12.2,1.13.38,2.34.91,3.33,2.37,4.38,4.44,8.84,4.18,14.09,4.3-.73,5.67-2.96,5.11-6.76-.44-2.99-1.39-5.8-2.56-8.54-2.3-5.41-2.74-10.88-.8-16.48,1.54-4.46,1.42-8.77-1.01-12.91Zm-69.89,3.85c-.47,11.08,3.06,20.36,11.17,28.26,5.97,5.81,12.19,6.66,19.03,3.06,13.36-7.05,23.22-17.1,26.08-32.67.32-1.75.18-3.26-.68-4.77-2.36-4.17-3.19-8.7-3.17-13.44.02-5.25-1.92-9.72-5.44-13.55-2.14-2.33-5.19-4.29-6.26-7.03-3.18-8.19-8.96-6.6-15.04-4.92-.8.22-1.59.5-2.41.64-11.04,1.89-17.05,8.95-19.71,19.33-2.11,8.23-3.33,16.61-3.59,25.09Zm39.16,28.2c-4.7,6.34-8.92,11.27-15.09,13.91-4.1,1.75-8.23,2.92-11.7-2.27-1.82,5.82-5.76,9.05-10.18,11.82-1.35.84-2.25,1.9-2.58,3.48-1.64,7.66-2.78,15.4-3.22,23.22-.22,3.8,1.46,6.23,5.26,7.39,4.32,1.32,8.74,2.01,13.15,2.86,3.25.63,4.59-.8,5.03-3.8.45-3.03,1.05-6.04,1.59-9.07,1.6,3.56.73,6.89-.15,10.17-.63,2.35-.17,3.4,2.44,3.34,5.51-.13,10.98-.41,16.3-2,5.04-1.5,8.37-4.54,9.32-9.93,1.24-7.05,2.54-14.09,3.97-21.1.68-3.32-.4-5.22-3.51-6.63-7.07-3.23-10.52-8.9-10.34-16.72.02-1.12-.13-2.23-.28-4.68Zm6.45-1.23c6.23,3.02,6.74,4.6,4.21,11.95-.89,2.6-1.74,5.6.25,7.58,1.96,1.95,4.84.26,6.91-.71,3.8-1.79,3.4-6.14,1.73-8.19-4.85-5.98-1.51-13.82-5.91-19.63.57-.17,1.14-.35,1.72-.52,2.45,8.87,4.9,17.73,7.41,26.8,2.73-1.03,3.93-2.86,2.56-6.02-1.13-2.6-2.14-5.24-3.25-7.84-3.2-7.51-3.14-14.54,2.72-20.9,1.32-1.43,2.42-3.19.92-5.36-2.33.43-3.53,4-6.02,2.72-2.6-1.33-3.16-.08-3.72,1.82-1.75,6-6.19,10.18-10.25,14.46-5.87,6.18-5.01,17.38,2.54,22.47-1.68-6.29,6.78-12.9-1.82-18.63Zm28.48-19.88c-6.53,10.34.96,19.25,2.29,28.82,2.36-4.46,2.25-9.18.51-13.46-2.03-4.98-4.16-9.74-2.81-15.36Zm-68.06-42.76c-8.68,6.5-13.55,15.77-12.91,23.5,1.21-1.78,1.3-5.32,3.38-5.17,4.7.34,4.2-2.93,4.76-5.48.9-4.07,2.33-7.92,4.77-12.85Zm80.59,117.75c-.38-.52.07-1.81-1.26-2.06-.93-.17-1.63.54-1.89,1.27-.86,2.37-2,3.79-4.95,3.3-1.43-.24-2.28,1.77-2,2.86.8,3.11,4.03,2.82,6.31,3.85,1.09.49,2.5-.08,2.22-.96-.96-3.03,1.4-5.25,1.57-8.27Zm1.59-52.34c1.59-11.62-6.24-20.32-10.18-30.28,1.1,10.77,11.93,18.49,10.18,30.28Zm-30.1-27.68c.06,1.15-.16,2.68,1.21,2.97,1.94.4,3.03-1.31,3.79-2.67,1.04-1.86-1-.83-1.52-1.29-1.13-.99-2.34-1.93.49-2.21,2.26-.22,2.04-2.24,2.18-3.82.06-.69-.38-1.31-1.18-1.3-1.51.02-2.38,1.09-3.13,2.19-1.26,1.83-1.83,3.9-1.84,6.13Zm1.92-9.93c6.65-1.05,6.26,2.62,5.65,7.1,2.5-4,4.18-7.57,1.48-10.41-2.35-2.48-4.17.72-7.13,3.31Zm1.54,27.22c-1.14,7.04,2.37,12.84,5.31,18.81.22-6.78-6.02-11.81-5.31-18.81Zm-51.23,18.47c.6-4.1.46-7.98-3.76-11.63-.45,5.26,2.05,8.31,3.76,11.63Z"/>
  <path class="cls-1" d="m62.9,179.91c7.31,2.36,14.9,2.32,22.48,2.45-7.71,1.43-15.34,2.02-22.48-2.45Z"/>
  <path class="cls-1" d="m79.69,77.97c-1.29,3.52-2.51,7.07-3.89,10.55-2.01,5.06-2.06,5.04,2.27,7.22-3.96.69-6.31-.6-5.44-3.4,1.58-5.09,3.12-10.29,5.91-14.91.38.18.77.36,1.15.54Z"/>
  <path class="cls-1" d="m86.24,101.66c-5,5.08-11.62,4.97-16.79-.63,3.52,1.08,5.96,2.85,8.9,2.74,2.79-.11,5.26-1.27,7.89-2.11Z"/>
  <path class="cls-1" d="m69.17,78.01c-1.23-1.24-2.12-2.91-2.33-4.76-.08-.73.64-2.23,1.81-1.69,1.57.73,3.3,1.72,2.76,4.03-.25,1.1-.45,2.31-2.24,2.42Z"/>
  <path class="cls-1" d="m92.29,79.5c-1.51-.04-1.72-1.09-1.84-2.05-.31-2.51,1.35-3.59,3.37-4.19,1.12-.33,1.41.65,1.37,1.49-.09,2.14-1.42,3.55-2.9,4.75Z"/>
</svg>